<svg xmlns="http://www.w3.org/2000/svg" width="255" height="158.4" viewBox="0 0 255 158.4">
  <g id="_3747372" data-name="3747372" transform="translate(-5.418 -5.826)">
    <g id="Background_Complete" transform="translate(7.472 12.512)">
      <g id="Group_576" data-name="Group 576" transform="translate(149.051 134.538)">
        <path id="Path_292" data-name="Path 292" d="M75.83,72.521a6.27,6.27,0,0,1,9.305,4.826c-3.8,0-7.547-.885-9.305-4.826" transform="translate(-63.709 -60.171)" fill="#ebebeb"/>
        <g id="Group_574" data-name="Group 574">
          <path id="Path_293" data-name="Path 293" d="M77.741,75.2a8.115,8.115,0,0,0,10.608-8.454c-4.83.949-9.362,3.011-10.608,8.454" transform="translate(-61.189 -66.746)" fill="#ebebeb"/>
          <g id="Group_573" data-name="Group 573" transform="translate(0 4.332)">
            <path id="Path_294" data-name="Path 294" d="M70.6,79.171a1.155,1.155,0,0,1,.237-.094c.177-.06.407-.139.693-.233.606-.2,1.479-.482,2.552-.854,2.146-.742,5.093-1.818,8.27-3.2,1.585-.7,3.079-1.4,4.415-2.082s2.515-1.348,3.482-1.939a22.5,22.5,0,0,0,2.21-1.521c.5-.391.742-.647.757-.629a1.323,1.323,0,0,1-.173.188,6.049,6.049,0,0,1-.538.5,20.053,20.053,0,0,1-2.187,1.577c-.964.61-2.138,1.284-3.471,1.98s-2.831,1.4-4.419,2.1c-3.185,1.385-6.143,2.447-8.3,3.154-1.08.358-1.961.621-2.571.794-.29.083-.523.147-.7.2A.914.914,0,0,1,70.6,79.171Z" transform="translate(-70.601 -68.615)" fill="#e0e0e0"/>
          </g>
        </g>
        <g id="Group_575" data-name="Group 575" transform="translate(7.954 11.978)">
          <path id="Path_295" data-name="Path 295" d="M83.081,74.5c-.019.026-.459-.279-1.22-.689a14.636,14.636,0,0,0-6.429-1.758c-.862-.034-1.4.008-1.4-.03a1.355,1.355,0,0,1,.373-.06,8.831,8.831,0,0,1,1.028-.049,12.948,12.948,0,0,1,6.493,1.777,10.237,10.237,0,0,1,.862.565A1.322,1.322,0,0,1,83.081,74.5Z" transform="translate(-74.032 -71.913)" fill="#e0e0e0"/>
        </g>
      </g>
      <g id="Group_578" data-name="Group 578" transform="translate(75.632 129.852)">
        <path id="Path_296" data-name="Path 296" d="M39.529,65.728A7.905,7.905,0,0,0,47.321,76.4c-.719-4.739-2.545-9.241-7.792-10.675" transform="translate(-38.783 -63.402)" fill="#ebebeb"/>
        <g id="Group_577" data-name="Group 577">
          <path id="Path_297" data-name="Path 297" d="M38.935,64.725c.03-.008.162.519.433,1.344a19.51,19.51,0,0,0,3.192,5.955c.538.685.9,1.084.877,1.107a1.625,1.625,0,0,1-.286-.252c-.177-.169-.418-.433-.7-.764a16.532,16.532,0,0,1-3.215-6c-.12-.422-.2-.768-.248-1.009A1.223,1.223,0,0,1,38.935,64.725Z" transform="translate(-38.93 -64.724)" fill="#e0e0e0"/>
        </g>
      </g>
      <g id="Group_580" data-name="Group 580" transform="translate(0 33.592)">
        <path id="Path_298" data-name="Path 298" d="M7.232,24.753A12.246,12.246,0,0,0,19.3,41.29c-1.118-7.34-3.941-14.308-12.072-16.536" transform="translate(-6.078 -21.154)" fill="#ebebeb"/>
        <g id="Group_579" data-name="Group 579">
          <path id="Path_299" data-name="Path 299" d="M6.306,23.2a3.568,3.568,0,0,1,.177.561c.1.365.252.888.459,1.532A29.261,29.261,0,0,0,11.9,34.531c.418.527.772.949,1.02,1.231a2.938,2.938,0,0,1,.369.459,3.292,3.292,0,0,1-.425-.407c-.267-.267-.636-.674-1.073-1.193a26.241,26.241,0,0,1-4.976-9.283c-.192-.651-.327-1.182-.4-1.555A4.308,4.308,0,0,1,6.306,23.2Z" transform="translate(-6.304 -23.201)" fill="#e0e0e0"/>
        </g>
      </g>
      <g id="Group_582" data-name="Group 582" transform="translate(10.929 109.735)">
        <path id="Path_300" data-name="Path 300" d="M13.963,57.073a7.907,7.907,0,0,0,1.28,13.156c1.784-4.446,2.507-9.245-1.28-13.156" transform="translate(-11.019 -54.694)" fill="#ebebeb"/>
        <g id="Group_581" data-name="Group 581" transform="translate(2.531)">
          <path id="Path_301" data-name="Path 301" d="M13.066,56.047c.03.011-.124.527-.309,1.378a20.2,20.2,0,0,0-.437,3.361,19.979,19.979,0,0,0,.154,3.388c.113.862.226,1.393.192,1.4a1.547,1.547,0,0,1-.117-.361c-.064-.237-.139-.583-.215-1.016a16.554,16.554,0,0,1,.286-6.806c.109-.425.215-.764.3-.994A1.639,1.639,0,0,1,13.066,56.047Z" transform="translate(-12.111 -56.047)" fill="#e0e0e0"/>
        </g>
      </g>
      <g id="Group_584" data-name="Group 584" transform="translate(81.34 10.273)">
        <path id="Path_302" data-name="Path 302" d="M42.423,19.8A7.905,7.905,0,0,0,53.84,13.141c-4.788.233-9.448,1.585-11.417,6.659" transform="translate(-40.033 -13.141)" fill="#ebebeb"/>
        <g id="Group_583" data-name="Group 583" transform="translate(0 3.541)">
          <path id="Path_303" data-name="Path 303" d="M41.392,18.288c0-.034.531-.105,1.381-.294a20.016,20.016,0,0,0,3.237-1.009,20.293,20.293,0,0,0,3.015-1.555c.738-.463,1.171-.787,1.19-.76a1.4,1.4,0,0,1-.282.26c-.188.158-.471.369-.832.617a16.782,16.782,0,0,1-3.015,1.622,16.355,16.355,0,0,1-3.286.964c-.433.075-.783.124-1.028.143A1.409,1.409,0,0,1,41.392,18.288Z" transform="translate(-41.392 -14.669)" fill="#e0e0e0"/>
        </g>
      </g>
      <g id="Group_586" data-name="Group 586" transform="translate(71.921)">
        <path id="Path_304" data-name="Path 304" d="M38.57,24.96A10.618,10.618,0,0,0,46.1,18.535,10.619,10.619,0,0,0,44.863,8.71c-4.743,4.175-8.439,9.4-6.294,16.25" transform="translate(-36.517 -8.71)" fill="#ebebeb"/>
        <g id="Group_585" data-name="Group 585" transform="translate(0 7.743)">
          <path id="Path_305" data-name="Path 305" d="M37.33,23.034a2.4,2.4,0,0,1,.316-.388c.215-.237.519-.591.881-1.035a26.049,26.049,0,0,0,2.518-3.7,25.9,25.9,0,0,0,1.822-4.092c.188-.542.327-.986.418-1.295a2.859,2.859,0,0,1,.162-.474,2.564,2.564,0,0,1-.09.493c-.068.316-.188.768-.358,1.317A22.173,22.173,0,0,1,38.636,21.7c-.38.437-.7.775-.934,1A2.305,2.305,0,0,1,37.33,23.034Z" transform="translate(-37.329 -12.05)" fill="#e0e0e0"/>
        </g>
      </g>
      <g id="Group_588" data-name="Group 588" transform="translate(103.519 144.29)">
        <path id="Path_306" data-name="Path 306" d="M51.534,71.862a4.76,4.76,0,0,0,7.909.888c-2.394-1.607-5.134-2.631-7.909-.888" transform="translate(-50.201 -70.953)" fill="#ebebeb"/>
        <g id="Group_587" data-name="Group 587" transform="translate(0 0.288)">
          <path id="Path_307" data-name="Path 307" d="M50.96,71.08a22.748,22.748,0,0,0,2.71.994,21.172,21.172,0,0,0,2.853.429,2.846,2.846,0,0,1-.854.049,9.407,9.407,0,0,1-2.048-.29,9.742,9.742,0,0,1-1.935-.727A2.87,2.87,0,0,1,50.96,71.08Z" transform="translate(-50.959 -71.077)" fill="#e0e0e0"/>
        </g>
      </g>
      <g id="Group_590" data-name="Group 590" transform="translate(138.319 8.457)">
        <path id="Path_308" data-name="Path 308" d="M66.587,13.948a4.761,4.761,0,0,0,7.931-.659c-2.661-1.11-5.545-1.589-7.931.659" transform="translate(-65.16 -12.358)" fill="#ebebeb"/>
        <g id="Group_589" data-name="Group 589" transform="translate(0 1.237)">
          <path id="Path_309" data-name="Path 309" d="M65.972,12.9a22,22,0,0,0,2.85.452,22.249,22.249,0,0,0,2.883-.128,2.9,2.9,0,0,1-.828.215,9.538,9.538,0,0,1-4.107-.23A2.9,2.9,0,0,1,65.972,12.9Z" transform="translate(-65.971 -12.892)" fill="#e0e0e0"/>
        </g>
      </g>
      <g id="Group_592" data-name="Group 592" transform="translate(227.927 12.911)">
        <path id="Path_310" data-name="Path 310" d="M105.6,22.994a7.9,7.9,0,0,0,9.93-8.714c-4.656,1.141-8.97,3.361-9.93,8.714" transform="translate(-103.346 -14.28)" fill="#ebebeb"/>
        <g id="Group_591" data-name="Group 591" transform="translate(0 4.419)">
          <path id="Path_311" data-name="Path 311" d="M104.626,21.43c-.011-.03.5-.207,1.3-.553a20.221,20.221,0,0,0,2.981-1.611,20.191,20.191,0,0,0,2.661-2.1c.632-.595,1-.994,1.02-.975a1.518,1.518,0,0,1-.226.309c-.154.192-.391.455-.7.768A16.5,16.5,0,0,1,105.974,21c-.41.158-.745.271-.979.339A1.515,1.515,0,0,1,104.626,21.43Z" transform="translate(-104.626 -16.186)" fill="#e0e0e0"/>
        </g>
      </g>
      <g id="Group_594" data-name="Group 594" transform="translate(236.427 114.791)">
        <path id="Path_312" data-name="Path 312" d="M109.953,79.793a13.752,13.752,0,0,0,7.973-21.565c-6.173,5.6-10.939,12.576-7.973,21.565" transform="translate(-107.295 -58.228)" fill="#ebebeb"/>
        <g id="Group_593" data-name="Group 593" transform="translate(0 10.261)">
          <path id="Path_313" data-name="Path 313" d="M108.293,77.271a4.139,4.139,0,0,1,.418-.512c.282-.316.678-.787,1.148-1.378s1.009-1.317,1.573-2.146,1.133-1.773,1.683-2.789,1.005-2.021,1.393-2.944.689-1.773.918-2.5.407-1.31.516-1.72a4.846,4.846,0,0,1,.192-.632,4.57,4.57,0,0,1-.12.651c-.087.418-.241,1.013-.456,1.743s-.512,1.589-.885,2.526a32,32,0,0,1-1.389,2.966,32.62,32.62,0,0,1-1.705,2.8c-.576.828-1.126,1.551-1.615,2.131s-.9,1.043-1.2,1.344A3.84,3.84,0,0,1,108.293,77.271Z" transform="translate(-108.292 -62.654)" fill="#e0e0e0"/>
        </g>
      </g>
    </g>
    <g id="Capa_8" transform="translate(60.739 37.584)">
      <g id="Group_596" data-name="Group 596">
        <path id="Path_314" data-name="Path 314" d="M164,83.35c-2.379-13.269-13.77-24.855-27.2-25.951-7.321-.595-14.681,1.713-21.972.832A25.583,25.583,0,0,1,98.833,49.8C92.818,42.948,90.77,33.2,84.4,26.679,75.612,17.69,60.276,17.547,49.59,24.16S32.436,42.711,29.477,54.926l-.117,3.715c-.644,12.67,2.688,27.4,10.043,38.693,7.449,11.443,12.347,16.167,25.921,24.4,11.526,6.986,34.1,10.058,47.573,10.382s27.317-3.693,37.454-12.58S166.379,96.619,164,83.35Z" transform="translate(-29.282 -19.526)" fill="#e8505b"/>
        <g id="Group_595" data-name="Group 595" opacity="0.8">
          <path id="Path_315" data-name="Path 315" d="M164,83.35c-2.379-13.269-13.77-24.855-27.2-25.951-7.321-.595-14.681,1.713-21.972.832A25.583,25.583,0,0,1,98.833,49.8C92.818,42.948,90.77,33.2,84.4,26.679,75.612,17.69,60.276,17.547,49.59,24.16S32.436,42.711,29.477,54.926l-.117,3.715c-.644,12.67,2.688,27.4,10.043,38.693,7.449,11.443,12.347,16.167,25.921,24.4,11.526,6.986,34.1,10.058,47.573,10.382s27.317-3.693,37.454-12.58S166.379,96.619,164,83.35Z" transform="translate(-29.282 -19.526)" fill="#fff"/>
        </g>
      </g>
      <g id="Group_597" data-name="Group 597" transform="translate(134.128 102.904)">
        <circle id="Ellipse_16" data-name="Ellipse 16" cx="6.493" cy="6.493" r="6.493" transform="translate(0 12.852) rotate(-81.743)" fill="#e8505b"/>
        <circle id="Ellipse_17" data-name="Ellipse 17" cx="6.493" cy="6.493" r="6.493" transform="translate(0 12.852) rotate(-81.743)" fill="#fff" opacity="0.8"/>
      </g>
    </g>
    <g id="_x34_04" transform="translate(98.946 27.259)">
      <g id="Group_698" data-name="Group 698">
        <g id="Group_695" data-name="Group 695">
          <g id="Group_600" data-name="Group 600" transform="translate(12.99 39.406)">
            <path id="Path_316" data-name="Path 316" d="M105.1,41.119l-2.635-.41L86.138,35.442l-9.55-2.759a10.267,10.267,0,0,0-8.263.561c-4.51,2.3-16.958,13.883-16.958,13.883l8.963,9.241-4.223,18.7C60.83,88.5,70.079,90.039,70.079,90.039a32.773,32.773,0,0,0,13.25-2.191c8.59-3.275,17.605-10.95,18.735-14.251.678-1.98,1.235-6.143,1.683-10.845l13.6-5.541,3.685-18.81Z" transform="translate(-51.367 -32.07)" fill="#455a64"/>
            <g id="Group_598" data-name="Group 598" transform="translate(18.986 39.083)">
              <path id="Path_317" data-name="Path 317" d="M74.442,52.182a.672.672,0,0,1-.132.117c-.094.068-.222.181-.407.3a9.3,9.3,0,0,1-1.634.877,9.966,9.966,0,0,1-11.278-2.462,9.1,9.1,0,0,1-1.118-1.479c-.12-.184-.188-.339-.245-.44s-.079-.158-.072-.162a5.9,5.9,0,0,1,.38.561,10.764,10.764,0,0,0,1.156,1.427,10.092,10.092,0,0,0,11.123,2.428,10.9,10.9,0,0,0,1.645-.813C74.235,52.306,74.431,52.171,74.442,52.182Z" transform="translate(-59.557 -48.93)" fill="#263238"/>
            </g>
            <g id="Group_599" data-name="Group 599" transform="translate(8.958 4.143)">
              <path id="Path_318" data-name="Path 318" d="M74.979,33.858a.282.282,0,0,1,.03.09c.019.072.041.158.068.267.056.233.136.583.23,1.031a25.2,25.2,0,0,1,.538,3.851,12.162,12.162,0,0,1-.154,2.688,8.694,8.694,0,0,1-1.073,2.9,11.4,11.4,0,0,1-2.232,2.586c-.885.791-1.863,1.525-2.861,2.281-2.119,1.6-4.186,3.034-6.034,4.344s-3.474,2.484-4.777,3.471l-.041.03-.041-.034a28.809,28.809,0,0,1-2.616-2.353,7.855,7.855,0,0,1-.614-.723,2.345,2.345,0,0,1-.132-.207c-.026-.049-.041-.072-.038-.075a2.96,2.96,0,0,1,.2.256c.136.166.343.4.632.693a31.793,31.793,0,0,0,2.646,2.3h-.083c1.291-1,2.91-2.195,4.754-3.508s3.9-2.763,6.019-4.355c.994-.757,1.972-1.487,2.85-2.266a11.376,11.376,0,0,0,2.206-2.537,8.492,8.492,0,0,0,1.065-2.834A12.391,12.391,0,0,0,75.7,39.1a27.408,27.408,0,0,0-.474-3.843c-.083-.437-.147-.783-.2-1.039-.019-.109-.034-.2-.049-.271A.547.547,0,0,1,74.979,33.858Z" transform="translate(-55.232 -33.858)" fill="#263238"/>
            </g>
          </g>
          <g id="Group_606" data-name="Group 606" transform="translate(32.485)">
            <path id="Path_319" data-name="Path 319" d="M137.872,67.1a12.027,12.027,0,0,0,3.015-13.751q-2.693-.277-5.387-.557a7.681,7.681,0,0,0,3.915-7.751A10.279,10.279,0,0,1,127.66,47.2c-2.515-1.242-4.555-3.557-7.318-4.043-2.507-.44-4.973.734-7.374,1.589s-5.308,1.325-7.3-.267c-1.577-1.261-2.063-3.474-1.961-5.488s.685-3.983.809-6a13.623,13.623,0,0,0-4.363-10.623A10.337,10.337,0,0,0,83.93,17.211a22.414,22.414,0,0,1-3.508,2.748c-1.509.745-3.264.745-4.9,1.148S72.178,22.59,72,24.265l-.659,3.429a7.621,7.621,0,0,1-.361.723c-1.389,2.435-4.227,4.035-4.845,6.768-.346,1.532.083,3.192-.433,4.675-.681,1.954-2.789,3.053-3.772,4.871-1.348,2.5-.433,6.874,1.724,8.722a25.772,25.772,0,0,0,9.381,4.393c.753-2.887,1.419-5.974,2.063-9.132,1.133,1.088,2.319,2.123,3.5,3.151,3.094,2.688,6.252,5.417,8.4,8.906C91.075,67.4,91.143,76.2,96.277,82.05a8.258,8.258,0,0,0,3.689,2.612,4.339,4.339,0,0,0,4.272-.87c1.276-1.272,1.442-3.418,2.85-4.536,1.875-1.487,4.615-.3,6.633.99a19.356,19.356,0,0,0,4.574,2.432,5.729,5.729,0,0,0,4.984-.531,3.431,3.431,0,0,0,1.009-4.566c-.407-.561-1.013-.952-1.415-1.517a1.4,1.4,0,0,1,.03-1.875c.61-.463,1.461-.015,2.123.373a12.616,12.616,0,0,0,18.347-6.821A10.444,10.444,0,0,1,137.872,67.1Z" transform="translate(-57.769 -15.072)" fill="#263238"/>
            <g id="Group_601" data-name="Group 601" transform="translate(41.098 6.452)">
              <path id="Path_320" data-name="Path 320" d="M113.157,33.887a4.367,4.367,0,0,1,.486.418,5.679,5.679,0,0,1,1.11,1.464,4.257,4.257,0,0,1,.414,1.269,2.98,2.98,0,0,1-.184,1.573,3.014,3.014,0,0,1-1.156,1.4,2.281,2.281,0,0,1-.949.343,2.13,2.13,0,0,1-1.054-.154c-1.4-.568-2.1-2.183-3.61-2.9a7.575,7.575,0,0,0-5.165-.418,20.9,20.9,0,0,0-5.353,2.4,18.551,18.551,0,0,1-5.853,2.447,8.148,8.148,0,0,1-3.237-.023,6.344,6.344,0,0,1-1.5-.557,5.864,5.864,0,0,1-1.265-.937,7.14,7.14,0,0,1-1.622-2.567,11.569,11.569,0,0,1-.663-2.831,43.993,43.993,0,0,1-.023-5.357,15.768,15.768,0,0,0-.455-4.6,10.435,10.435,0,0,0-.719-1.886,11.633,11.633,0,0,0-2.838-3.7,12.23,12.23,0,0,0-1.472-1.084c-.173-.1-.309-.184-.41-.241a.8.8,0,0,1-.136-.09,1.09,1.09,0,0,1,.147.072c.1.056.241.132.422.226a11.585,11.585,0,0,1,1.5,1.062,11.264,11.264,0,0,1,1.965,2.142,11.593,11.593,0,0,1,1.675,3.463,15.78,15.78,0,0,1,.486,4.638,44.519,44.519,0,0,0,.041,5.334,11.483,11.483,0,0,0,.659,2.786,6.98,6.98,0,0,0,1.581,2.5,5.662,5.662,0,0,0,1.22.9,6.2,6.2,0,0,0,1.449.538,7.961,7.961,0,0,0,3.158.019,18.436,18.436,0,0,0,5.793-2.42,20.938,20.938,0,0,1,5.405-2.405,9.46,9.46,0,0,1,2.759-.233,7.2,7.2,0,0,1,1.314.215,6.206,6.206,0,0,1,1.2.471c1.562.764,2.262,2.387,3.587,2.917a2.027,2.027,0,0,0,1.886-.166,2.911,2.911,0,0,0,1.314-2.861,4.071,4.071,0,0,0-.391-1.246,5.985,5.985,0,0,0-1.069-1.472c-.147-.151-.263-.26-.343-.331S113.157,33.887,113.157,33.887Z" transform="translate(-77.505 -17.855)" fill="#263238"/>
            </g>
            <g id="Group_602" data-name="Group 602" transform="translate(0 0.584)">
              <path id="Path_321" data-name="Path 321" d="M74.992,58.951a1.508,1.508,0,0,1-.03-.169,2.93,2.93,0,0,0-.1-.493,4.268,4.268,0,0,0-.926-1.679,7.174,7.174,0,0,0-2.5-1.735,17.882,17.882,0,0,0-3.93-1.024,12.319,12.319,0,0,1-4.675-1.6,6.945,6.945,0,0,1-1.107-10.581c1.558-1.6,3.76-2.39,5.56-3.8a7.174,7.174,0,0,0,1.186-1.2,4.972,4.972,0,0,0,.723-1.491,18.458,18.458,0,0,0,.376-3.275,7.257,7.257,0,0,1,.3-1.607,4.011,4.011,0,0,1,.794-1.408,5.652,5.652,0,0,1,2.691-1.5c.967-.282,1.927-.455,2.838-.708a7.75,7.75,0,0,0,2.477-1.107,9.551,9.551,0,0,0,1.86-1.739,20.478,20.478,0,0,0,1.4-1.9c.832-1.261,1.543-2.435,2.3-3.377a11.026,11.026,0,0,1,2.195-2.168,6.143,6.143,0,0,1,1.732-.892,4.216,4.216,0,0,1,.659-.166c0,.015-.23.056-.647.2a6.362,6.362,0,0,0-1.7.915,10.976,10.976,0,0,0-2.153,2.172c-.745.941-1.445,2.116-2.27,3.384a21.766,21.766,0,0,1-1.4,1.927A9.653,9.653,0,0,1,78.764,25.7a7.9,7.9,0,0,1-2.526,1.141c-.918.256-1.878.433-2.834.715a5.5,5.5,0,0,0-2.6,1.449,3.856,3.856,0,0,0-.753,1.34,7.15,7.15,0,0,0-.29,1.566,18.433,18.433,0,0,1-.38,3.313,5.106,5.106,0,0,1-.753,1.551,7.187,7.187,0,0,1-1.22,1.242,26.51,26.51,0,0,1-2.895,1.841,12.64,12.64,0,0,0-2.65,1.939,6.773,6.773,0,0,0,1.058,10.314,12.275,12.275,0,0,0,4.611,1.6,17.458,17.458,0,0,1,3.949,1.058,7.234,7.234,0,0,1,2.511,1.784,4.19,4.19,0,0,1,.907,1.72,2.646,2.646,0,0,1,.083.5A1.532,1.532,0,0,1,74.992,58.951Z" transform="translate(-59.777 -15.324)" fill="#263238"/>
            </g>
            <g id="Group_603" data-name="Group 603" transform="translate(39.669 5.605)">
              <path id="Path_322" data-name="Path 322" d="M82.488,22.3a.97.97,0,0,1-.29-.075,6.7,6.7,0,0,1-.753-.3A9.879,9.879,0,0,1,79.2,20.468a10,10,0,0,1-1.777-2,7.222,7.222,0,0,1-.414-.7.91.91,0,0,1-.117-.275c.03-.015.241.35.644.9A11.554,11.554,0,0,0,81.5,21.8C82.108,22.12,82.5,22.275,82.488,22.3Z" transform="translate(-76.889 -17.49)" fill="#455a64"/>
            </g>
            <g id="Group_604" data-name="Group 604" transform="translate(42.694 31.368)">
              <path id="Path_323" data-name="Path 323" d="M93.285,33.331a6.79,6.79,0,0,1-.663-.151,11.193,11.193,0,0,0-1.826-.226,23.565,23.565,0,0,0-2.737.079c-1.031.072-2.168.177-3.369.151a9.151,9.151,0,0,1-3.324-.625,5.9,5.9,0,0,1-2.228-1.626,4.212,4.212,0,0,1-.858-1.653,2.852,2.852,0,0,1-.079-.5.629.629,0,0,1,0-.177c.023,0,.034.241.154.659a4.32,4.32,0,0,0,.888,1.581,5.891,5.891,0,0,0,2.191,1.551,9.235,9.235,0,0,0,3.256.595c1.186.026,2.319-.072,3.35-.136a22.255,22.255,0,0,1,2.755-.038,9.147,9.147,0,0,1,1.837.29,5.011,5.011,0,0,1,.482.154A.545.545,0,0,1,93.285,33.331Z" transform="translate(-78.194 -28.603)" fill="#455a64"/>
            </g>
            <g id="Group_605" data-name="Group 605" transform="translate(40.54 38.283)">
              <path id="Path_324" data-name="Path 324" d="M116.692,46.515a.536.536,0,0,1-.109.049,1.737,1.737,0,0,1-.335.109,2.634,2.634,0,0,1-1.348-.06,4.333,4.333,0,0,1-1.807-1.141,7.55,7.55,0,0,1-1.453-2.435,18.253,18.253,0,0,0-1.427-3.094,8.291,8.291,0,0,0-1.193-1.457,9.555,9.555,0,0,0-1.6-1.208,15.216,15.216,0,0,0-8.639-1.822c-3.188.166-6.185.79-8.959.986a17.677,17.677,0,0,1-7.306-.757,10.071,10.071,0,0,1-4.186-2.624,6.193,6.193,0,0,1-.5-.6,3.769,3.769,0,0,1-.328-.471c-.075-.124-.135-.222-.184-.3a.454.454,0,0,1-.056-.105.784.784,0,0,1,.075.094c.049.075.117.169.2.29a4,4,0,0,0,.339.455,6.444,6.444,0,0,0,.512.583,10.206,10.206,0,0,0,4.175,2.545,17.691,17.691,0,0,0,7.246.7c2.759-.2,5.756-.832,8.966-1a15.33,15.33,0,0,1,8.744,1.863,9.717,9.717,0,0,1,1.622,1.238,8.149,8.149,0,0,1,1.212,1.494,18.087,18.087,0,0,1,1.419,3.132,7.453,7.453,0,0,0,1.4,2.413,4.287,4.287,0,0,0,1.75,1.144,2.643,2.643,0,0,0,1.317.094C116.542,46.579,116.688,46.5,116.692,46.515Z" transform="translate(-77.265 -31.586)" fill="#455a64"/>
            </g>
          </g>
          <g id="Group_676" data-name="Group 676" transform="translate(47.302 8.624)">
            <g id="Group_674" data-name="Group 674">
              <g id="Group_673" data-name="Group 673">
                <g id="Group_672" data-name="Group 672">
                  <g id="Group_671" data-name="Group 671">
                    <g id="Group_656" data-name="Group 656">
                      <g id="Group_655" data-name="Group 655">
                        <g id="Group_654" data-name="Group 654">
                          <g id="Group_613" data-name="Group 613">
                            <g id="Group_612" data-name="Group 612">
                              <g id="Group_611" data-name="Group 611">
                                <g id="Group_610" data-name="Group 610">
                                  <g id="Group_609" data-name="Group 609">
                                    <g id="Group_608" data-name="Group 608">
                                      <g id="Group_607" data-name="Group 607">
                                        <path id="Path_325" data-name="Path 325" d="M72.115,20.584a2.814,2.814,0,0,0-2.868,2.5h0L66.2,54.782c-.527,4.457,5.3,14.014,10.081,14.541h0c4.826.531,5.3-1.807,5.921-6.03,1.046-7.058,1.4-9.712,1.393-9.67,0,0,6.211-.207,8.515-7.973,1.144-3.862,1.8-10.355,2.164-15.686.327-4.8-2.055-11.052-6.862-11.172Z" transform="translate(-66.168 -18.792)" fill="#ffbe9d"/>
                                      </g>
                                    </g>
                                  </g>
                                </g>
                              </g>
                            </g>
                          </g>
                          <g id="Group_629" data-name="Group 629" transform="translate(22.391 12.386)">
                            <g id="Group_620" data-name="Group 620" transform="translate(1.567 1.937)">
                              <g id="Group_619" data-name="Group 619">
                                <g id="Group_618" data-name="Group 618">
                                  <g id="Group_617" data-name="Group 617">
                                    <g id="Group_616" data-name="Group 616">
                                      <g id="Group_615" data-name="Group 615">
                                        <g id="Group_614" data-name="Group 614">
                                          <path id="Path_326" data-name="Path 326" d="M78.552,26.028a1.025,1.025,0,0,1-1.118.9.979.979,0,0,1-.926-1.054,1.024,1.024,0,0,1,1.114-.9A.978.978,0,0,1,78.552,26.028Z" transform="translate(-76.503 -24.971)" fill="#263238"/>
                                        </g>
                                      </g>
                                    </g>
                                  </g>
                                </g>
                              </g>
                            </g>
                            <g id="Group_628" data-name="Group 628">
                              <g id="Group_627" data-name="Group 627">
                                <g id="Group_626" data-name="Group 626">
                                  <g id="Group_625" data-name="Group 625">
                                    <g id="Group_624" data-name="Group 624">
                                      <g id="Group_623" data-name="Group 623">
                                        <g id="Group_622" data-name="Group 622">
                                          <g id="Group_621" data-name="Group 621">
                                            <path id="Path_327" data-name="Path 327" d="M79.876,25.078c-.117.143-.934-.376-2.033-.3-1.1.064-1.871.685-2,.561-.064-.056.049-.3.384-.587a2.822,2.822,0,0,1,1.589-.614,2.71,2.71,0,0,1,1.63.4C79.8,24.781,79.932,25.014,79.876,25.078Z" transform="translate(-75.827 -24.135)" fill="#263238"/>
                                          </g>
                                        </g>
                                      </g>
                                    </g>
                                  </g>
                                </g>
                              </g>
                            </g>
                          </g>
                          <g id="Group_638" data-name="Group 638" transform="translate(12.27 14.815)">
                            <g id="Group_637" data-name="Group 637">
                              <g id="Group_636" data-name="Group 636">
                                <g id="Group_635" data-name="Group 635">
                                  <g id="Group_634" data-name="Group 634">
                                    <g id="Group_633" data-name="Group 633">
                                      <g id="Group_632" data-name="Group 632">
                                        <g id="Group_631" data-name="Group 631">
                                          <g id="Group_630" data-name="Group 630">
                                            <path id="Path_328" data-name="Path 328" d="M75.513,26.321c-.132.132-.892-.467-2-.5-1.1-.045-1.927.5-2.044.361-.056-.06.079-.3.44-.546a2.818,2.818,0,0,1,1.641-.455,2.714,2.714,0,0,1,1.585.561C75.467,26.02,75.577,26.265,75.513,26.321Z" transform="translate(-71.461 -25.183)" fill="#263238"/>
                                          </g>
                                        </g>
                                      </g>
                                    </g>
                                  </g>
                                </g>
                              </g>
                            </g>
                          </g>
                          <g id="Group_646" data-name="Group 646" transform="translate(18.376 12.599)">
                            <g id="Group_645" data-name="Group 645">
                              <g id="Group_644" data-name="Group 644">
                                <g id="Group_643" data-name="Group 643">
                                  <g id="Group_642" data-name="Group 642">
                                    <g id="Group_641" data-name="Group 641">
                                      <g id="Group_640" data-name="Group 640">
                                        <g id="Group_639" data-name="Group 639">
                                          <path id="Path_329" data-name="Path 329" d="M74.1,33.412a7.293,7.293,0,0,1,1.822-.087c.282.008.557-.011.629-.2a1.419,1.419,0,0,0-.079-.854q-.26-1.067-.546-2.236A36.749,36.749,0,0,1,74.8,24.227a37.008,37.008,0,0,1,1.589,5.707c.177.783.35,1.532.508,2.243a1.617,1.617,0,0,1,0,1.114.7.7,0,0,1-.512.346,1.884,1.884,0,0,1-.482,0A7.323,7.323,0,0,1,74.1,33.412Z" transform="translate(-74.095 -24.227)" fill="#263238"/>
                                        </g>
                                      </g>
                                    </g>
                                  </g>
                                </g>
                              </g>
                            </g>
                          </g>
                          <g id="Group_653" data-name="Group 653" transform="translate(7.178 30.603)">
                            <g id="Group_652" data-name="Group 652">
                              <g id="Group_651" data-name="Group 651">
                                <g id="Group_650" data-name="Group 650">
                                  <g id="Group_649" data-name="Group 649">
                                    <g id="Group_648" data-name="Group 648">
                                      <g id="Group_647" data-name="Group 647">
                                        <path id="Path_330" data-name="Path 330" d="M79.515,36.225a20.345,20.345,0,0,1-10.25-4.231s1.961,5.808,10,6.109Z" transform="translate(-69.265 -31.994)" fill="#eb996e"/>
                                      </g>
                                    </g>
                                  </g>
                                </g>
                              </g>
                            </g>
                          </g>
                        </g>
                      </g>
                    </g>
                    <g id="Group_663" data-name="Group 663" transform="translate(11.456 12.652)">
                      <g id="Group_662" data-name="Group 662">
                        <g id="Group_661" data-name="Group 661">
                          <g id="Group_660" data-name="Group 660">
                            <g id="Group_659" data-name="Group 659">
                              <g id="Group_658" data-name="Group 658">
                                <g id="Group_657" data-name="Group 657">
                                  <path id="Path_331" data-name="Path 331" d="M76.13,25.665c-.173.267-1.216-.12-2.511-.267-1.295-.169-2.4-.038-2.5-.339-.045-.143.2-.376.674-.565a4.393,4.393,0,0,1,3.821.459C76.028,25.251,76.209,25.537,76.13,25.665Z" transform="translate(-71.11 -24.25)" fill="#263238"/>
                                </g>
                              </g>
                            </g>
                          </g>
                        </g>
                      </g>
                    </g>
                    <g id="Group_670" data-name="Group 670" transform="translate(22.509 10.799)">
                      <g id="Group_669" data-name="Group 669">
                        <g id="Group_668" data-name="Group 668">
                          <g id="Group_667" data-name="Group 667">
                            <g id="Group_666" data-name="Group 666">
                              <g id="Group_665" data-name="Group 665">
                                <g id="Group_664" data-name="Group 664">
                                  <path id="Path_332" data-name="Path 332" d="M79.643,24.5c-.181.26-.952.038-1.867.075-.915,0-1.679.256-1.871,0-.083-.124.026-.38.35-.636a2.611,2.611,0,0,1,1.5-.489,2.573,2.573,0,0,1,1.513.429C79.605,24.125,79.722,24.377,79.643,24.5Z" transform="translate(-75.878 -23.451)" fill="#263238"/>
                                </g>
                              </g>
                            </g>
                          </g>
                        </g>
                      </g>
                    </g>
                  </g>
                </g>
              </g>
            </g>
            <path id="Path_333" data-name="Path 333" d="M73.126,29.278a2.349,2.349,0,0,1,1.724-.361,1.343,1.343,0,0,1,.8.418,1.687,1.687,0,0,1,.279,1.152,2.286,2.286,0,0,1-.105.715.943.943,0,0,1-.459.538,1.259,1.259,0,0,1-.738.038,2.832,2.832,0,0,1-1.163-.422,1.449,1.449,0,0,1-.651-1.016.978.978,0,0,1,.583-1" transform="translate(-57.414 -5.496)" fill="#eb996e"/>
            <g id="Group_675" data-name="Group 675" transform="translate(14.743 23.668)">
              <path id="Path_334" data-name="Path 334" d="M76.466,31.533c-.083.03-.226-.211-.489-.542a4.023,4.023,0,0,0-2.733-1.558c-.418-.06-.7-.06-.715-.147s.245-.222.723-.271a3.167,3.167,0,0,1,3.083,1.758C76.534,31.209,76.542,31.51,76.466,31.533Z" transform="translate(-72.528 -29.002)" fill="#263238"/>
            </g>
          </g>
          <path id="Path_335" data-name="Path 335" d="M68.2,41.485a7.916,7.916,0,0,0,5.53-5.277,18.46,18.46,0,0,0,.614-7.9,1.275,1.275,0,0,0-.358-.934c-.4-.3-.964-.056-1.389.2A44.421,44.421,0,0,0,67.86,30.9a9.252,9.252,0,0,0-3.324,4.141,5.318,5.318,0,0,0,3.587,6.471" transform="translate(-21.289 0.953)" fill="#263238"/>
          <g id="Group_684" data-name="Group 684" transform="translate(71.888 10.866)">
            <path id="Path_336" data-name="Path 336" d="M111.865,50.719,99.526,30.888,96.119,23.91s-1.088-1.442-2.217-2.673a2.577,2.577,0,0,0-3.685-.452,1.257,1.257,0,0,0-1.238-.764,2.106,2.106,0,0,0-1.705.87,2.842,2.842,0,0,0-1.9-.647,1.475,1.475,0,0,0-.888.286,2.264,2.264,0,0,0-2.112-.689,22.668,22.668,0,0,0-5.413,4.615c-.467.727.4,1.668,1.566,1.227a10.361,10.361,0,0,0,1.4-.568,3.732,3.732,0,0,0,.949-.764s-.967,1.694,0,1.991a2.207,2.207,0,0,0,1.814-.44c.369-.312.794-.715,1.2-1.107-.015.023-.034.045-.049.068-.535.79.858,1.961,1.536,1.487a10.017,10.017,0,0,0,.9-.711c1.566,1.137-.61,2.594-1.528,2.518a28.615,28.615,0,0,0-4.246-.015,3.037,3.037,0,0,0-1.942.7c-.519.535.026,1.656.76,1.769a49.577,49.577,0,0,1,4.867.971c2.112.542,7.63,2.338,7.63,2.338l.538.437,7.506,18.3L87,55.375,84.134,71.652l23.188-6.29C112.55,62.64,115.027,55.687,111.865,50.719Z" transform="translate(-76.705 -19.759)" fill="#ffbe9d"/>
            <g id="Group_677" data-name="Group 677" transform="translate(1.713 7.659)">
              <path id="Path_337" data-name="Path 337" d="M90.9,29.56a1.661,1.661,0,0,1-.294-.072c-.207-.06-.486-.139-.832-.237-.742-.218-1.777-.527-3.049-.907-.644-.2-1.348-.407-2.1-.636s-1.562-.474-2.424-.693a23.1,23.1,0,0,0-2.718-.561,4.655,4.655,0,0,1-1.476-.267,1,1,0,0,1-.331-.248.584.584,0,0,1-.113-.2l-.03-.2a1.92,1.92,0,0,1,.049-.8,1.1,1.1,0,0,1,.535-.617,3.971,3.971,0,0,1,.719-.286,4.826,4.826,0,0,1,1.487-.184c.979.011,1.9.147,2.782.113a9.22,9.22,0,0,0,1.276-.124c.41-.075.8-.181,1.186-.279a6.241,6.241,0,0,1,2.195-.279,5.931,5.931,0,0,1,1.769.452,11.175,11.175,0,0,1,1.235.606c.327.184.576.339.745.44a2,2,0,0,1,.248.169,1.994,1.994,0,0,1-.271-.136c-.192-.1-.444-.237-.76-.41a12.135,12.135,0,0,0-1.238-.572,5.869,5.869,0,0,0-1.739-.414,6.237,6.237,0,0,0-2.142.3c-.38.1-.775.215-1.2.294a8.621,8.621,0,0,1-1.3.136c-.9.041-1.833-.09-2.789-.1a4.682,4.682,0,0,0-1.427.177c-.459.151-.986.312-1.126.779a1.746,1.746,0,0,0-.041.715l.023.173a.422.422,0,0,0,.072.124.819.819,0,0,0,.267.2,4.645,4.645,0,0,0,1.412.248,22.76,22.76,0,0,1,2.737.576c.862.226,1.671.471,2.424.711s1.453.455,2.1.659c1.265.4,2.3.734,3.034.967l.821.271A1.944,1.944,0,0,1,90.9,29.56Z" transform="translate(-77.513 -23.063)" fill="#eb996e"/>
            </g>
            <g id="Group_678" data-name="Group 678" transform="translate(0 0.11)">
              <path id="Path_338" data-name="Path 338" d="M82.365,19.808c.019.03-.58.38-1.468,1.05a14.475,14.475,0,0,0-1.476,1.28c-.527.512-1.08,1.114-1.735,1.675a1.827,1.827,0,0,0-.7.93.654.654,0,0,0,.452.806,1.978,1.978,0,0,0,.994.019,4.755,4.755,0,0,0,.862-.248,6.537,6.537,0,0,0,1.528-.926,1.647,1.647,0,0,1-.339.35,4.365,4.365,0,0,1-1.137.7,4.525,4.525,0,0,1-.885.279,2.118,2.118,0,0,1-1.084-.008.881.881,0,0,1-.493-.376.9.9,0,0,1-.094-.64,1.949,1.949,0,0,1,.757-1.039c.644-.553,1.2-1.144,1.735-1.656a13.731,13.731,0,0,1,1.521-1.261c.455-.327.847-.561,1.118-.719A2.878,2.878,0,0,1,82.365,19.808Z" transform="translate(-76.774 -19.807)" fill="#eb996e"/>
            </g>
            <g id="Group_679" data-name="Group 679" transform="translate(3.528 0.484)">
              <path id="Path_339" data-name="Path 339" d="M85.068,21.154a4.776,4.776,0,0,1-.437.519c-.312.346-.73.806-1.238,1.363-.535.58-1.163,1.253-1.856,2a4.444,4.444,0,0,1-1.3.994,1.946,1.946,0,0,1-.862.215,1.2,1.2,0,0,1-.866-.346.824.824,0,0,1-.207-.471,1.482,1.482,0,0,1,.049-.486,2.886,2.886,0,0,1,.4-.824l0,0,.008-.008c.663-.7,1.28-1.366,1.837-1.976s1.107-1.088,1.547-1.506a3.144,3.144,0,0,1,.644-.519,1.579,1.579,0,0,1,.61-.132c.331-.023.527.008.512.041a1.55,1.55,0,0,0-.5.023,1.621,1.621,0,0,0-.568.151,3.3,3.3,0,0,0-.606.523c-.429.429-.96.926-1.513,1.528s-1.159,1.284-1.822,2l.008-.011a2.629,2.629,0,0,0-.365.76,1.3,1.3,0,0,0-.045.414.654.654,0,0,0,.154.358,1.025,1.025,0,0,0,.723.282,1.769,1.769,0,0,0,.779-.2A4.379,4.379,0,0,0,81.4,24.9c.7-.738,1.344-1.4,1.886-1.976.527-.538.96-.986,1.284-1.321.139-.139.26-.256.358-.354A.768.768,0,0,1,85.068,21.154Z" transform="translate(-78.296 -19.968)" fill="#eb996e"/>
            </g>
            <g id="Group_680" data-name="Group 680" transform="translate(14.679 3.242)">
              <path id="Path_340" data-name="Path 340" d="M84.494,21.4c.019.015-.019.113-.151.218a.813.813,0,0,1-.625.154.784.784,0,0,1-.535-.358c-.087-.143-.09-.248-.064-.256s.075.072.173.169a.82.82,0,0,0,.975.169C84.4,21.445,84.472,21.381,84.494,21.4Z" transform="translate(-83.106 -21.158)" fill="#eb996e"/>
            </g>
            <g id="Group_681" data-name="Group 681" transform="translate(15.623 3.717)">
              <path id="Path_341" data-name="Path 341" d="M84.409,22.858c-.041.034-.324-.248-.572-.67a1.629,1.629,0,0,1-.312-.824c.053-.023.241.316.482.726A2.887,2.887,0,0,1,84.409,22.858Z" transform="translate(-83.513 -21.362)" fill="#eb996e"/>
            </g>
            <g id="Group_682" data-name="Group 682" transform="translate(16.684 6.277)">
              <path id="Path_342" data-name="Path 342" d="M84.638,28.132a2.532,2.532,0,0,1-.358-.783,6.427,6.427,0,0,1,.056-4.107,2.583,2.583,0,0,1,.376-.775,10.177,10.177,0,0,0-.546,2.827A9.916,9.916,0,0,0,84.638,28.132Z" transform="translate(-83.971 -22.467)" fill="#eb996e"/>
            </g>
            <g id="Group_683" data-name="Group 683" transform="translate(23.031 32.945)">
              <path id="Path_343" data-name="Path 343" d="M91.162,39.051c-.038,0-.075-.4-.271-1.013A6.017,6.017,0,0,0,90.447,37a6.208,6.208,0,0,0-1.8-2.052,6.306,6.306,0,0,0-.967-.576c-.583-.275-.979-.361-.967-.4,0-.015.1,0,.282.038a4.371,4.371,0,0,1,.742.233,5.311,5.311,0,0,1,1.016.553,5.838,5.838,0,0,1,1.856,2.116A5.374,5.374,0,0,1,91.023,38a3.958,3.958,0,0,1,.136.764A.9.9,0,0,1,91.162,39.051Z" transform="translate(-86.709 -33.971)" fill="#eb996e"/>
            </g>
          </g>
          <g id="Group_690" data-name="Group 690" transform="translate(0 55.072)">
            <path id="Path_344" data-name="Path 344" d="M102.08,68.9a5.339,5.339,0,0,0-3.132.4c-1.675-.742-3.742.538-3.742.538-.606-.29-4.257,2.1-4.257,2.1L86.4,74.08,62.111,56.031,69,48.867,59.348,38.828,48.04,50.463a8.565,8.565,0,0,0-2.255,5.477A11.139,11.139,0,0,0,51.974,66.5L80.6,81.176a33.408,33.408,0,0,0,6.508-1.013,59.171,59.171,0,0,0,6.689-2.518,8.1,8.1,0,0,0,.742,1.589c1.359,2.631,3.35-.207,3.35-.207a5.4,5.4,0,0,0,.772,1.287c1.72,1.668,2.914-.572,2.914-.572s.516.9,2.055.23-.222-5.293-.222-5.293.516,1.005,1.513-.267S103.725,69.243,102.08,68.9Z" transform="translate(-45.764 -38.828)" fill="#ffbe9d"/>
            <g id="Group_685" data-name="Group 685" transform="translate(52.88 30.54)">
              <path id="Path_345" data-name="Path 345" d="M68.575,52.167a.83.83,0,0,1,.316-.12,1.89,1.89,0,0,1,.922.026,3.521,3.521,0,0,1,1.216.621,4.449,4.449,0,0,1,.606.542,3.453,3.453,0,0,1,.474.734,18.446,18.446,0,0,1,1.11,2.789c.113.369.188.67.237.877a1.254,1.254,0,0,1,.053.331,11.3,11.3,0,0,1-.418-1.167,25.747,25.747,0,0,0-1.156-2.744,3.334,3.334,0,0,0-.444-.7,4.362,4.362,0,0,0-.572-.523,3.73,3.73,0,0,0-1.144-.632A2.52,2.52,0,0,0,68.575,52.167Z" transform="translate(-68.574 -52.002)" fill="#eb996e"/>
            </g>
            <g id="Group_686" data-name="Group 686" transform="translate(49.292 31.974)">
              <path id="Path_346" data-name="Path 346" d="M73.539,61.561a2.284,2.284,0,0,1-.211-.418c-.143-.309-.32-.7-.531-1.152-.448-.975-1.1-2.3-1.728-3.824a9.934,9.934,0,0,0-.99-2.055,3.417,3.417,0,0,0-1.4-1.167,2.244,2.244,0,0,0-1.2-.215c-.29.038-.44.117-.452.1s.034-.026.105-.064a1.282,1.282,0,0,1,.335-.109,2.232,2.232,0,0,1,1.272.162A3.457,3.457,0,0,1,70.231,54a9.72,9.72,0,0,1,1.024,2.089c.621,1.509,1.257,2.85,1.675,3.843.211.493.373.9.474,1.182A2.3,2.3,0,0,1,73.539,61.561Z" transform="translate(-67.027 -52.621)" fill="#eb996e"/>
            </g>
            <g id="Group_687" data-name="Group 687" transform="translate(44.655 33.866)">
              <path id="Path_347" data-name="Path 347" d="M65.027,54.676a1.884,1.884,0,0,1,.388-.215c.294-.143.655-.316,1.084-.523.233-.109.478-.23.76-.35a2.129,2.129,0,0,1,.975-.143,2.016,2.016,0,0,1,1.02.391,3.306,3.306,0,0,1,.749.892,10.884,10.884,0,0,1,.527,1.013c.162.327.327.636.489.93.327.583.636,1.11.866,1.566a9.419,9.419,0,0,1,.482,1.11,1.7,1.7,0,0,1,.12.429c-.034.011-.237-.587-.726-1.472-.241-.444-.561-.96-.9-1.543-.169-.294-.339-.6-.5-.934s-.324-.67-.523-.994a3.14,3.14,0,0,0-.7-.839,1.893,1.893,0,0,0-.922-.365,1.969,1.969,0,0,0-.9.113c-.271.109-.527.226-.76.324-.44.184-.809.339-1.11.467A1.907,1.907,0,0,1,65.027,54.676Z" transform="translate(-65.026 -53.437)" fill="#eb996e"/>
            </g>
            <g id="Group_688" data-name="Group 688" transform="translate(36.298 33.104)">
              <path id="Path_348" data-name="Path 348" d="M70.306,53.111a1.532,1.532,0,0,1-.331.211c-.218.124-.538.3-.937.508-.794.422-1.9.99-3.128,1.607S63.568,56.6,62.754,57c-.407.2-.738.35-.967.452a1.374,1.374,0,0,1-.365.139,1.531,1.531,0,0,1,.331-.211c.218-.124.538-.3.937-.508.794-.422,1.9-.99,3.128-1.607s2.341-1.167,3.154-1.558c.407-.2.734-.35.967-.452A1.372,1.372,0,0,1,70.306,53.111Z" transform="translate(-61.422 -53.108)" fill="#eb996e"/>
            </g>
            <g id="Group_689" data-name="Group 689" transform="translate(11.032 16.905)">
              <path id="Path_349" data-name="Path 349" d="M56.158,46.46a12.513,12.513,0,0,0-2.868-.094,12.367,12.367,0,0,0-2.767.76,2.606,2.606,0,0,1,.745-.422,7.1,7.1,0,0,1,2-.535,7.25,7.25,0,0,1,2.067.053A2.655,2.655,0,0,1,56.158,46.46Z" transform="translate(-50.523 -46.12)" fill="#eb996e"/>
            </g>
          </g>
          <g id="Group_694" data-name="Group 694" transform="translate(36.024 5.613)">
            <path id="Path_350" data-name="Path 350" d="M93.247,18.143a75.87,75.87,0,0,0-17.892,1.89,6.718,6.718,0,0,0-3.715,1.758,7.072,7.072,0,0,0-1.272,4.156q-.232,2.682-.467,5.364a12.045,12.045,0,0,1-.858,1.28c-1.415,1.848-3.218,3.388-4.506,5.33s-2,4.517-.949,6.595c.632,1.257,1.811,2.146,2.669,3.26,1.457,1.893,1.931,4.333,2.782,6.565s2.387,4.506,4.732,4.954c1.118.215,2.281-.023,3.407.143a9.894,9.894,0,0,1,4.438,2.4A9.083,9.083,0,0,0,86.1,64.124c1.694.169,3.632-.979,3.666-2.68a3.973,3.973,0,0,1-4.092-.117A18.671,18.671,0,0,1,83.2,58.8c-2.078-2.018-5.432-2.658-6.877-5.168-1.144-1.988-.689-4.472-.169-6.7.452-1.935.907-4.035.35-5.895a6.593,6.593,0,0,0,.068-.9c.015-1.98-.772-4.1.151-5.853,1.22-2.319,4.735-2.609,5.966-4.92.715-1.344.463-3.06,1.246-4.363a5.342,5.342,0,0,1,3.606-2.1,13.756,13.756,0,0,0,4.111-1.167C92.89,21.008,93.808,19.457,93.247,18.143Z" transform="translate(-58.959 -16.645)" fill="#263238"/>
            <g id="Group_691" data-name="Group 691" transform="translate(15.353 21.949)">
              <path id="Path_351" data-name="Path 351" d="M91.423,46.9s-.015.034-.056.094-.109.154-.184.263a5.38,5.38,0,0,1-.866.877,5.87,5.87,0,0,1-1.717.922,5.955,5.955,0,0,1-2.563.3,5.381,5.381,0,0,1-2.883-1.182c-.9-.689-1.694-1.6-2.706-2.33a3.86,3.86,0,0,0-1.724-.723,3.8,3.8,0,0,0-1.92.346,9.816,9.816,0,0,1-2,.689,3.482,3.482,0,0,1-2.142-.38,10.8,10.8,0,0,1-1.811-1.2,14.024,14.024,0,0,1-1.589-1.381,4.926,4.926,0,0,1-1.129-1.705,3.456,3.456,0,0,1-.128-1.957,10.533,10.533,0,0,1,.568-1.765c.218-.557.407-1.1.572-1.634a22.166,22.166,0,0,0,.941-7.517c-.023-.531-.056-.945-.087-1.223-.011-.132-.023-.237-.026-.316a.6.6,0,0,1,0-.109.384.384,0,0,1,.023.105c.011.083.026.184.049.316.041.279.087.689.124,1.223a21.413,21.413,0,0,1-.181,4.517,22.165,22.165,0,0,1-.678,3.053c-.166.538-.35,1.092-.568,1.649a10.9,10.9,0,0,0-.553,1.739,3.3,3.3,0,0,0,.128,1.856,4.755,4.755,0,0,0,1.092,1.634,14.482,14.482,0,0,0,1.57,1.359,10.469,10.469,0,0,0,1.777,1.178,3.318,3.318,0,0,0,2.029.365,9.6,9.6,0,0,0,1.954-.674,3.964,3.964,0,0,1,2.01-.354,4.086,4.086,0,0,1,1.807.76c1.035.753,1.826,1.668,2.7,2.353a5.223,5.223,0,0,0,2.8,1.171,6.034,6.034,0,0,0,4.22-1.141A7.146,7.146,0,0,0,91.423,46.9Z" transform="translate(-67.926 -26.962)" fill="#263238"/>
            </g>
            <g id="Group_692" data-name="Group 692" transform="translate(0.305)">
              <path id="Path_352" data-name="Path 352" d="M62.371,47.408a3.921,3.921,0,0,1-.3-.414,4.268,4.268,0,0,1-.531-1.37,5.6,5.6,0,0,1,.038-2.326,7.105,7.105,0,0,1,1.3-2.793A13.13,13.13,0,0,1,65.6,37.933c1.08-.806,2.307-1.551,3.531-2.424a12.9,12.9,0,0,0,3.35-3.256,8.391,8.391,0,0,0,1.016-2.247c.245-.806.41-1.649.6-2.5a13.4,13.4,0,0,1,.76-2.477,5.593,5.593,0,0,1,1.479-2.044,6.332,6.332,0,0,1,2.134-1.174,9.665,9.665,0,0,1,2.289-.452,26.143,26.143,0,0,1,4.291.136,20.25,20.25,0,0,0,3.712.049,7.9,7.9,0,0,0,2.91-.866,5.833,5.833,0,0,0,1.784-1.438,4.3,4.3,0,0,0,.719-1.261c.105-.316.147-.489.158-.486a3.454,3.454,0,0,1-.12.5,4.21,4.21,0,0,1-.7,1.295,5.768,5.768,0,0,1-1.792,1.487,7.964,7.964,0,0,1-2.947.907,20.07,20.07,0,0,1-3.738-.023,25.925,25.925,0,0,0-4.261-.117A9.609,9.609,0,0,0,78.531,22a6.094,6.094,0,0,0-2.07,1.144,5.4,5.4,0,0,0-1.427,1.98,13.248,13.248,0,0,0-.749,2.443c-.2.847-.361,1.694-.606,2.511a8.468,8.468,0,0,1-1.043,2.3,13.023,13.023,0,0,1-3.407,3.3c-1.235.873-2.462,1.615-3.538,2.409a12.969,12.969,0,0,0-2.7,2.522,7.062,7.062,0,0,0-1.306,2.733,5.614,5.614,0,0,0-.068,2.289A4.751,4.751,0,0,0,62.371,47.408Z" transform="translate(-61.435 -17.493)" fill="#455a64"/>
            </g>
            <g id="Group_693" data-name="Group 693" transform="translate(0 6.74)">
              <path id="Path_353" data-name="Path 353" d="M63.648,45.551a8.325,8.325,0,0,1-1.156-1.11,5.225,5.225,0,0,1-1.005-1.6,2.662,2.662,0,0,1-.173-1.178,2.361,2.361,0,0,1,.508-1.235,4.617,4.617,0,0,1,2.676-1.37c.535-.113,1.088-.2,1.641-.335a4.743,4.743,0,0,0,1.6-.666,3.941,3.941,0,0,0,1.167-1.381,12.5,12.5,0,0,0,.723-1.8A12.715,12.715,0,0,1,70.4,33a3.992,3.992,0,0,1,1.412-1.562,7,7,0,0,1,1.961-.764c.666-.173,1.325-.312,1.946-.523a6.3,6.3,0,0,0,2.989-2.2,22.806,22.806,0,0,0,1.856-2.9,16.337,16.337,0,0,1,1.69-2.507,6.429,6.429,0,0,1,1.931-1.577,4.945,4.945,0,0,1,1.8-.546,3.37,3.37,0,0,1,1.186.1,2.333,2.333,0,0,1,.391.136c0,.011-.139-.041-.4-.1A3.7,3.7,0,0,0,86,20.489a4.9,4.9,0,0,0-1.758.565,6.41,6.41,0,0,0-1.878,1.57,16.452,16.452,0,0,0-1.656,2.5,22.324,22.324,0,0,1-1.856,2.932A7.864,7.864,0,0,1,77.519,29.4a5.664,5.664,0,0,1-1.743.93c-.636.218-1.3.358-1.957.531a6.908,6.908,0,0,0-1.9.742,3.806,3.806,0,0,0-1.348,1.491,12.712,12.712,0,0,0-.757,1.856,12.459,12.459,0,0,1-.738,1.822,4.093,4.093,0,0,1-1.231,1.445,4.877,4.877,0,0,1-1.668.685c-.565.136-1.122.218-1.649.327a4.481,4.481,0,0,0-2.6,1.3,2.215,2.215,0,0,0-.493,1.159,2.513,2.513,0,0,0,.151,1.126,5.362,5.362,0,0,0,.96,1.581c.331.391.614.674.806.866.09.087.162.158.222.215S63.652,45.548,63.648,45.551Z" transform="translate(-61.304 -20.401)" fill="#455a64"/>
            </g>
          </g>
        </g>
        <g id="Group_696" data-name="Group 696" transform="translate(78.946 13.186)">
          <path id="Path_354" data-name="Path 354" d="M85.579,20.761a1.182,1.182,0,0,1-.2.29c-.136.181-.339.433-.595.742-.512.617-1.25,1.445-2.115,2.315a3.834,3.834,0,0,1-1.385,1.069,1.22,1.22,0,0,1-.794-.008,1.009,1.009,0,0,1-.512-.467,1.539,1.539,0,0,1-.143-.956.849.849,0,0,1,.09-.339,1.847,1.847,0,0,1-.015.346,1.577,1.577,0,0,0,.184.881.871.871,0,0,0,.448.384,1.058,1.058,0,0,0,.681-.011,3.872,3.872,0,0,0,1.3-1.035c.862-.866,1.611-1.675,2.149-2.266A10.1,10.1,0,0,1,85.579,20.761Z" transform="translate(-79.819 -20.76)" fill="#eb996e"/>
        </g>
        <g id="Group_697" data-name="Group 697" transform="translate(82.451 13.186)">
          <path id="Path_355" data-name="Path 355" d="M86.462,20.76a1.372,1.372,0,0,1-.226.294c-.154.181-.384.437-.67.749s-.64.693-1.013,1.1c-.192.207-.4.422-.6.644a4.925,4.925,0,0,1-.708.651,1.812,1.812,0,0,1-.918.365.941.941,0,0,1-.854-.373.735.735,0,0,1-.139-.437.863.863,0,0,1,.128-.4c.139-.226.282-.4.407-.572.252-.343.459-.617.6-.806a1.3,1.3,0,0,1,.245-.279,1.269,1.269,0,0,1-.181.324c-.128.2-.316.489-.553.839-.113.177-.26.369-.376.572a.572.572,0,0,0,.015.655.765.765,0,0,0,.7.286,1.634,1.634,0,0,0,.817-.331,5.12,5.12,0,0,0,.681-.625l.61-.632,1.043-1.065c.3-.3.542-.542.715-.708A1.459,1.459,0,0,1,86.462,20.76Z" transform="translate(-81.331 -20.76)" fill="#eb996e"/>
        </g>
      </g>
    </g>
    <g id="Plants" transform="translate(5.418 53.576)">
      <g id="Group_700" data-name="Group 700" transform="translate(217.74 99.336)">
        <path id="Path_356" data-name="Path 356" d="M100.5,72.052a4.767,4.767,0,0,1,7.747-1.34,6.174,6.174,0,0,1-3.467,2.661,3.765,3.765,0,0,1-4.28-1.321" transform="translate(-97.826 -69.275)" fill="#e8505b"/>
        <g id="Group_699" data-name="Group 699" transform="translate(0 2.049)">
          <path id="Path_357" data-name="Path 357" d="M99.345,71.5a4.932,4.932,0,0,1,1.08-.339c.681-.166,1.626-.354,2.68-.527s2.01-.3,2.7-.384a6.014,6.014,0,0,1,1.129-.087,6.819,6.819,0,0,1-1.11.226c-.749.124-1.671.275-2.691.44-1.05.173-2,.339-2.684.467A9.858,9.858,0,0,1,99.345,71.5Z" transform="translate(-99.345 -70.159)" fill="#263238"/>
        </g>
      </g>
      <g id="Group_704" data-name="Group 704" transform="translate(79.106 67.907)">
        <path id="Path_358" data-name="Path 358" d="M43.724,60.192A6.272,6.272,0,0,1,42.6,70.616c-1.381-3.542-1.912-7.355,1.122-10.423" transform="translate(-36.963 -49.818)" fill="#e8505b"/>
        <g id="Group_702" data-name="Group 702">
          <path id="Path_359" data-name="Path 359" d="M44.718,61.432A8.114,8.114,0,0,0,56.443,68.25c-2.631-4.156-6.2-7.63-11.726-6.817" transform="translate(-32.721 -48.34)" fill="#e8505b"/>
          <g id="Group_701" data-name="Group 701">
            <path id="Path_360" data-name="Path 360" d="M39.543,55.717a1.422,1.422,0,0,1,.173.188c.12.143.275.331.471.561.4.493.982,1.2,1.72,2.067,1.468,1.732,3.542,4.088,5.985,6.546,1.223,1.227,2.424,2.36,3.542,3.361S53.6,70.3,54.5,70.981a23.4,23.4,0,0,0,2.217,1.509c.546.324.87.455.862.478a1.235,1.235,0,0,1-.237-.09,5.458,5.458,0,0,1-.659-.32,20.046,20.046,0,0,1-2.262-1.464c-.918-.674-1.969-1.528-3.106-2.518s-2.334-2.131-3.561-3.358c-2.447-2.462-4.51-4.837-5.951-6.595-.723-.877-1.291-1.6-1.675-2.108-.181-.241-.327-.433-.44-.583A1.369,1.369,0,0,1,39.543,55.717Z" transform="translate(-39.543 -55.717)" fill="#263238"/>
          </g>
        </g>
        <g id="Group_703" data-name="Group 703" transform="translate(5.497 6.399)">
          <path id="Path_361" data-name="Path 361" d="M42.888,67.806c-.034-.008.094-.531.2-1.385a14.646,14.646,0,0,0-.689-6.629c-.282-.813-.512-1.3-.482-1.314a1.391,1.391,0,0,1,.192.327,8.658,8.658,0,0,1,.418.941,12.91,12.91,0,0,1,.7,6.7,9.4,9.4,0,0,1-.215,1.009A1.652,1.652,0,0,1,42.888,67.806Z" transform="translate(-41.914 -58.478)" fill="#263238"/>
        </g>
      </g>
      <g id="Group_706" data-name="Group 706" transform="translate(250.743)">
        <path id="Path_362" data-name="Path 362" d="M114.536,33.881a4.769,4.769,0,0,1,2.5-7.457,6.185,6.185,0,0,1,.7,4.314,3.767,3.767,0,0,1-3.2,3.143" transform="translate(-113.582 -26.424)" fill="#e8505b"/>
        <g id="Group_705" data-name="Group 705" transform="translate(0.226 2.785)">
          <path id="Path_363" data-name="Path 363" d="M113.685,34.943a4.607,4.607,0,0,1,.218-1.114c.177-.678.463-1.6.809-2.609s.685-1.912.941-2.56a6.082,6.082,0,0,1,.459-1.035,6.822,6.822,0,0,1-.327,1.084c-.248.719-.55,1.6-.888,2.579-.346,1.005-.651,1.92-.862,2.582S113.712,34.951,113.685,34.943Z" transform="translate(-113.679 -27.626)" fill="#263238"/>
        </g>
      </g>
      <g id="Group_713" data-name="Group 713" transform="translate(223.988 23.844)">
        <g id="Group_709" data-name="Group 709">
          <path id="Path_364" data-name="Path 364" d="M107.011,48.329a9.221,9.221,0,0,1,9.866-11.571A11.962,11.962,0,0,1,115.014,45a7.279,7.279,0,0,1-8,3.328" transform="translate(-95.892 -36.71)" fill="#e8505b"/>
          <g id="Group_707" data-name="Group 707" transform="translate(0 4.719)">
            <path id="Path_365" data-name="Path 365" d="M102.041,56.788a1.311,1.311,0,0,1,.158-.2c.124-.143.286-.324.486-.553.433-.474,1.061-1.152,1.852-1.98,1.577-1.656,3.783-3.919,6.237-6.4s4.69-4.717,6.316-6.328c.806-.79,1.461-1.434,1.935-1.9.218-.211.4-.38.535-.508a1.817,1.817,0,0,1,.2-.169,1.486,1.486,0,0,1-.166.2l-.508.535c-.463.474-1.1,1.133-1.89,1.942-1.619,1.645-3.832,3.888-6.275,6.369s-4.656,4.72-6.279,6.362c-.787.806-1.43,1.461-1.9,1.935-.211.218-.384.391-.512.527A1.1,1.1,0,0,1,102.041,56.788Z" transform="translate(-102.041 -38.745)" fill="#263238"/>
          </g>
          <g id="Group_708" data-name="Group 708" transform="translate(10.814)" opacity="0.3">
            <path id="Path_366" data-name="Path 366" d="M107.011,48.329a9.221,9.221,0,0,1,9.866-11.571A11.962,11.962,0,0,1,115.014,45a7.279,7.279,0,0,1-8,3.328" transform="translate(-106.706 -36.71)"/>
          </g>
        </g>
        <g id="Group_712" data-name="Group 712" transform="translate(2.909 3.477)">
          <path id="Path_367" data-name="Path 367" d="M106.365,47.47a5.662,5.662,0,0,1-1.178-9.26,7.345,7.345,0,0,1,2.974,4.25,4.469,4.469,0,0,1-1.8,5.01" transform="translate(-103.296 -38.21)" fill="#e8505b"/>
          <g id="Group_710" data-name="Group 710" opacity="0.3">
            <path id="Path_368" data-name="Path 368" d="M106.365,47.47a5.662,5.662,0,0,1-1.178-9.26,7.345,7.345,0,0,1,2.974,4.25,4.469,4.469,0,0,1-1.8,5.01" transform="translate(-103.296 -38.21)"/>
          </g>
          <g id="Group_711" data-name="Group 711" transform="translate(2.466 3.395)">
            <path id="Path_369" data-name="Path 369" d="M105.549,48.746a1.472,1.472,0,0,1-.117-.343c-.064-.226-.136-.553-.215-.96-.158-.817-.324-1.95-.474-3.207s-.256-2.4-.316-3.222a8.512,8.512,0,0,1-.057-1.34A9.912,9.912,0,0,1,104.563,41c.1.877.23,1.988.373,3.215.151,1.253.294,2.387.418,3.207S105.579,48.739,105.549,48.746Z" transform="translate(-104.36 -39.674)" fill="#263238"/>
          </g>
        </g>
      </g>
      <g id="Group_716" data-name="Group 716" transform="translate(157.067 74.783)">
        <path id="Path_370" data-name="Path 370" d="M74.214,64.109a8.906,8.906,0,0,1,14.65-2.669c-4.269,3.313-9.249,5.571-14.65,2.669" transform="translate(-71.801 -58.683)" fill="#e8505b"/>
        <g id="Group_714" data-name="Group 714" transform="translate(2.413)" opacity="0.3">
          <path id="Path_371" data-name="Path 371" d="M74.214,64.109a8.906,8.906,0,0,1,14.65-2.669c-4.269,3.313-9.249,5.571-14.65,2.669" transform="translate(-74.214 -58.683)"/>
        </g>
        <g id="Group_715" data-name="Group 715" transform="translate(0 3.374)">
          <path id="Path_372" data-name="Path 372" d="M73.173,63.515a1.735,1.735,0,0,1,.339-.264c.226-.162.561-.376.986-.625a18.765,18.765,0,0,1,7.288-2.4c.489-.053.888-.079,1.167-.083a1.6,1.6,0,0,1,.429.011c0,.034-.606.072-1.577.211a21.705,21.705,0,0,0-7.235,2.387C73.7,63.211,73.192,63.542,73.173,63.515Z" transform="translate(-73.173 -60.139)" fill="#263238"/>
        </g>
      </g>
      <g id="Group_719" data-name="Group 719" transform="translate(58.185 30.531)">
        <path id="Path_373" data-name="Path 373" d="M31.409,40.224A6.88,6.88,0,0,1,41.2,46.265c-4.159-.309-8.183-1.585-9.787-6.042" transform="translate(-29.342 -39.594)" fill="#e8505b"/>
        <g id="Group_717" data-name="Group 717" transform="translate(2.067)" opacity="0.3">
          <path id="Path_374" data-name="Path 374" d="M31.409,40.224A6.88,6.88,0,0,1,41.2,46.265c-4.159-.309-8.183-1.585-9.787-6.042" transform="translate(-31.409 -39.594)"/>
        </g>
        <g id="Group_718" data-name="Group 718" transform="translate(0 0.136)">
          <path id="Path_375" data-name="Path 375" d="M30.518,39.661a1.019,1.019,0,0,1,.331.015,8.86,8.86,0,0,1,.892.143,14.166,14.166,0,0,1,2.838.907,13.994,13.994,0,0,1,2.586,1.479c.309.226.55.418.708.561s.245.222.237.233c-.019.026-.391-.263-1.024-.681a17.184,17.184,0,0,0-5.375-2.368C30.977,39.77,30.514,39.691,30.518,39.661Z" transform="translate(-30.518 -39.653)" fill="#263238"/>
        </g>
      </g>
      <g id="Group_721" data-name="Group 721" transform="translate(194.144 68.714)">
        <path id="Path_376" data-name="Path 376" d="M89.619,62.949a6.156,6.156,0,0,1,7.86-6.64c-1.419,3.452-3.625,6.52-7.86,6.64" transform="translate(-88.627 -56.066)" fill="#e8505b"/>
        <g id="Group_720" data-name="Group 720" transform="translate(0 2.975)">
          <path id="Path_377" data-name="Path 377" d="M89.168,62.88a4.571,4.571,0,0,1,.471-1A12.528,12.528,0,0,1,91.2,59.714a12.808,12.808,0,0,1,1.98-1.788,4.473,4.473,0,0,1,.941-.576,10.864,10.864,0,0,1-.858.685,15.614,15.614,0,0,0-3.508,3.911A9.058,9.058,0,0,1,89.168,62.88Z" transform="translate(-89.167 -57.349)" fill="#263238"/>
        </g>
      </g>
      <g id="Group_724" data-name="Group 724" transform="translate(224.087 48.015)">
        <path id="Path_378" data-name="Path 378" d="M102.532,55.163a6.155,6.155,0,0,1,6.471-8c-.745,3.659-2.334,7.084-6.471,8" transform="translate(-101.862 -47.136)" fill="#e8505b"/>
        <g id="Group_722" data-name="Group 722" transform="translate(0.389)" opacity="0.3">
          <path id="Path_379" data-name="Path 379" d="M102.532,55.163a6.155,6.155,0,0,1,6.471-8c-.745,3.659-2.334,7.084-6.471,8" transform="translate(-102.251 -47.136)"/>
        </g>
        <g id="Group_723" data-name="Group 723" transform="translate(0 3.449)">
          <path id="Path_380" data-name="Path 380" d="M102.087,54.983a4.339,4.339,0,0,1,.275-1.069,12.551,12.551,0,0,1,2.737-4.547,4.227,4.227,0,0,1,.817-.742,10.2,10.2,0,0,1-.715.836,15.562,15.562,0,0,0-2.71,4.506A9.836,9.836,0,0,1,102.087,54.983Z" transform="translate(-102.083 -48.624)" fill="#263238"/>
        </g>
      </g>
      <g id="Group_726" data-name="Group 726" transform="translate(0 24.318)">
        <path id="Path_381" data-name="Path 381" d="M6.054,41.72a6.152,6.152,0,0,1,9.618-3.648c-2.481,2.782-5.582,4.942-9.618,3.648" transform="translate(-4.581 -36.914)" fill="#e8505b"/>
        <g id="Group_725" data-name="Group 725" transform="translate(0 2.438)">
          <path id="Path_382" data-name="Path 382" d="M5.419,41.535a4.486,4.486,0,0,1,.775-.787,12.421,12.421,0,0,1,2.191-1.521A12.839,12.839,0,0,1,10.847,38.2a4.311,4.311,0,0,1,1.08-.23,10.14,10.14,0,0,1-1.039.361,15.581,15.581,0,0,0-4.611,2.522A8.654,8.654,0,0,1,5.419,41.535Z" transform="translate(-5.418 -37.966)" fill="#263238"/>
        </g>
      </g>
    </g>
    <g id="Speech_Bubble" transform="translate(178.951 5.826)">
      <g id="Group_733" data-name="Group 733">
        <g id="Group_730" data-name="Group 730">
          <g id="Group_729" data-name="Group 729">
            <g id="Group_728" data-name="Group 728">
              <path id="Path_383" data-name="Path 383" d="M80.276,33.536,83.3,28.082a14.532,14.532,0,1,1,3.52,3.84l0,.008Z" transform="translate(-80.276 -5.786)" fill="#fff"/>
              <g id="Group_727" data-name="Group 727">
                <path id="Path_384" data-name="Path 384" d="M80.276,33.576c.339-.087,2.387-.606,6.535-1.656L86.784,32l0-.008-.23-.294.3.222a14.739,14.739,0,0,0,2.989,1.739,14.566,14.566,0,0,0,3.96,1.073,13.349,13.349,0,0,0,2.277.087c.391-.026.79-.041,1.189-.079.4-.064.8-.132,1.212-.2a14.507,14.507,0,0,0,8.9-5.861,14.359,14.359,0,0,0,2.364-5.564,14.626,14.626,0,0,0-.237-6.373,14.158,14.158,0,0,0-3.128-5.861l-.591-.64c-.2-.215-.425-.391-.636-.587s-.418-.4-.655-.561l-.693-.508a6.263,6.263,0,0,0-.715-.463l-.73-.433c-.256-.12-.512-.241-.764-.361a6.637,6.637,0,0,0-.772-.335,14.647,14.647,0,0,0-6.433-.93A14.151,14.151,0,0,0,88.5,7.855a14.591,14.591,0,0,0-6.753,8.436,15.523,15.523,0,0,0-.595,4.679A14.406,14.406,0,0,0,83.34,28.1l.015.023-.015.023c-1.95,3.456-2.9,5.138-3.064,5.428.158-.294,1.084-1.988,2.985-5.477v.049a14.431,14.431,0,0,1-2.236-7.178,15.7,15.7,0,0,1,.583-4.728A14.708,14.708,0,0,1,88.418,7.7a14.262,14.262,0,0,1,5.955-1.822,14.821,14.821,0,0,1,6.52.937,6.825,6.825,0,0,1,.783.339c.256.12.516.245.775.369l.742.44a6.14,6.14,0,0,1,.727.471l.7.516a8.645,8.645,0,0,1,.663.568c.215.2.448.376.644.595l.6.647a14.284,14.284,0,0,1,3.169,5.944,14.846,14.846,0,0,1,.233,6.459,14.4,14.4,0,0,1-2.4,5.631,14.636,14.636,0,0,1-4.144,3.941A14.783,14.783,0,0,1,98.506,34.7c-.414.068-.821.132-1.223.2-.407.038-.809.053-1.2.079a13.223,13.223,0,0,1-2.3-.094,14.411,14.411,0,0,1-3.99-1.1,14.679,14.679,0,0,1-3-1.773l.068-.068,0,.008.045.06-.075.019C82.673,33.008,80.614,33.5,80.276,33.576Z" transform="translate(-80.276 -5.826)" fill="#263238"/>
              </g>
            </g>
          </g>
        </g>
        <g id="Group_732" data-name="Group 732" transform="translate(11.288 8.534)">
          <g id="Group_731" data-name="Group 731">
            <path id="Path_385" data-name="Path 385" d="M85.146,13.068l1.886-.019a1.6,1.6,0,0,1,1.63-1.63,1.529,1.529,0,0,1,1.487.96,1.689,1.689,0,0,1-.12,1.528,2.05,2.05,0,0,1-2.285.806l.041,4.257,1.867-.019-.023-2.492a3.64,3.64,0,0,0,2.582-3.587,3.39,3.39,0,0,0-3.569-3.365A3.242,3.242,0,0,0,85.146,13.068Z" transform="translate(-85.145 -9.507)" fill="#e8505b"/>
            <rect id="Rectangle_138" data-name="Rectangle 138" width="1.894" height="1.769" transform="translate(2.656 10.343) rotate(-0.55)" fill="#e8505b"/>
          </g>
        </g>
      </g>
    </g>
  </g>
</svg>
