<svg xmlns="http://www.w3.org/2000/svg" width="54.394" height="52.216" viewBox="0 0 54.394 52.216">
  <path id="Icon_awesome-star" data-name="Icon awesome-star" d="M24.949,1.753,18.521,14.786l-14.382,2.1A3.152,3.152,0,0,0,2.4,22.258L12.8,32.4,10.341,46.721a3.148,3.148,0,0,0,4.568,3.317l12.866-6.763,12.866,6.763a3.151,3.151,0,0,0,4.568-3.317L42.748,32.4l10.405-10.14a3.152,3.152,0,0,0-1.742-5.375l-14.382-2.1L30.6,1.753a3.153,3.153,0,0,0-5.651,0Z" transform="matrix(0.999, -0.035, 0.035, 0.999, -1.44, 1.889)" fill="#845ec2"/>
</svg>
